<?xml version="1.0" standalone="no"?>
<!DOCTYPE svg PUBLIC "-//W3C//DTD SVG 20010904//EN"
 "http://www.w3.org/TR/2001/REC-SVG-20010904/DTD/svg10.dtd">
<svg version="1.0" xmlns="http://www.w3.org/2000/svg"
 width="316.000000pt" height="316.000000pt" viewBox="0 0 316.000000 316.000000"
 preserveAspectRatio="xMidYMid meet">
<metadata>
Created by potrace 1.11, written by Peter Selinger 2001-2013
</metadata>
<g transform="translate(0.000000,316.000000) scale(0.100000,-0.100000)"
fill="#000000" stroke="none">
<path d="M1497 2934 c-1 -1 -36 -5 -77 -8 -41 -3 -86 -8 -100 -10 -80 -15
-130 -19 -261 -21 -81 -2 -166 1 -189 6 -80 18 -259 12 -342 -11 -16 -5 -33
-9 -37 -8 -3 1 -13 -1 -21 -4 -8 -3 -52 -18 -97 -32 -46 -14 -108 -40 -138
-56 -30 -16 -55 -27 -55 -23 0 4 -7 -2 -15 -13 -8 -10 -15 -14 -15 -9 0 6 -5
3 -10 -5 -5 -8 -15 -15 -22 -15 -7 0 -13 -7 -13 -15 -1 -8 -7 -14 -14 -12 -7
1 -10 -1 -7 -6 3 -5 -3 -16 -12 -25 -25 -23 -44 -47 -37 -47 3 0 -2 -14 -11
-31 -21 -42 -25 -152 -8 -241 8 -40 17 -80 21 -88 3 -8 7 -17 8 -20 19 -65 30
-90 37 -90 5 0 6 -4 3 -10 -3 -5 -2 -10 4 -10 5 0 8 -9 6 -19 -2 -13 4 -21 18
-25 17 -5 19 -8 9 -15 -11 -6 -10 -10 3 -15 10 -4 15 -12 11 -22 -3 -8 -2 -13
3 -10 5 3 21 -11 37 -32 19 -25 22 -33 9 -23 -11 8 -9 3 5 -11 14 -14 28 -24
32 -22 3 2 5 -7 3 -21 -1 -18 1 -22 9 -16 14 11 41 -24 31 -39 -3 -6 1 -7 9
-4 15 6 22 -11 17 -39 -1 -5 4 -5 10 -1 9 5 10 2 6 -9 -4 -10 -2 -16 6 -14 6
1 13 -8 15 -20 2 -13 8 -23 13 -23 5 0 9 -9 9 -19 0 -11 6 -26 13 -33 8 -7 13
-21 11 -31 -1 -9 4 -17 12 -17 14 0 37 -34 29 -42 -3 -2 9 -3 25 0 17 2 27 9
23 15 -3 6 -1 7 5 3 6 -4 9 -13 5 -21 -3 -8 -1 -15 4 -15 9 0 15 -22 39 -130
7 -33 10 -42 18 -62 4 -9 5 -22 1 -27 -3 -7 0 -8 10 -5 11 4 14 2 9 -9 -3 -8
0 -18 7 -23 8 -5 10 -3 4 6 -5 9 -4 11 4 6 9 -6 9 -11 0 -22 -10 -12 -10 -15
2 -12 8 2 13 -4 13 -14 -1 -10 3 -15 9 -11 6 4 8 0 4 -10 -4 -11 -2 -14 8 -10
9 3 18 -3 22 -13 10 -27 29 -44 39 -36 5 4 2 -2 -6 -12 -10 -13 -10 -17 -2
-12 7 4 12 2 12 -4 0 -6 5 -8 12 -4 7 5 9 2 5 -9 -4 -11 -2 -14 9 -10 9 3 14
-2 14 -16 0 -12 5 -21 11 -21 5 0 7 5 3 12 -4 6 -3 8 4 4 6 -3 9 -16 7 -27 -3
-16 -1 -18 9 -10 17 14 29 2 14 -16 -9 -11 -7 -12 7 -6 15 5 17 3 12 -12 -6
-14 -5 -16 6 -6 18 14 36 -5 32 -32 -3 -14 0 -15 9 -8 17 14 29 1 14 -16 -9
-11 -7 -12 7 -6 15 5 17 3 12 -12 -6 -15 -5 -16 7 -6 11 9 16 9 22 0 4 -8 3
-9 -4 -5 -7 4 -12 2 -12 -3 0 -6 6 -11 13 -11 8 0 24 -12 38 -27 13 -14 17
-22 9 -18 -12 7 -13 6 -3 -7 7 -8 10 -18 6 -21 -3 -4 1 -7 11 -7 9 0 14 -4 11
-10 -3 -5 -1 -10 4 -10 6 0 11 -11 11 -24 0 -14 5 -28 10 -31 6 -4 8 -11 5
-16 -4 -5 -3 -9 2 -9 4 0 9 -10 9 -22 1 -13 4 -35 8 -51 6 -27 9 -42 20 -107
3 -19 9 -48 12 -65 3 -16 7 -39 9 -50 2 -11 4 -21 5 -22 2 -2 3 -7 4 -12 0 -5
4 -12 8 -16 4 -4 4 -13 1 -21 -3 -8 0 -14 6 -14 6 0 11 -3 10 -8 -2 -15 14
-52 23 -52 5 0 6 -4 3 -10 -3 -5 1 -10 10 -10 11 0 15 -5 12 -15 -4 -8 -1 -17
5 -21 7 -4 8 -3 4 4 -4 7 -2 12 3 12 6 0 11 -3 11 -7 0 -5 20 -17 44 -27 32
-14 42 -24 38 -35 -5 -13 -2 -13 12 2 20 20 40 13 32 -12 -5 -13 -3 -12 8 3
12 14 25 17 60 14 25 -2 46 -1 46 2 0 3 23 5 50 4 28 -2 48 1 46 5 -3 4 5 7
16 6 12 -1 25 -10 30 -21 7 -16 8 -15 4 4 -4 23 -3 24 52 20 31 -1 60 -7 64
-13 5 -6 8 -4 9 5 0 10 3 8 9 -5 7 -17 9 -17 9 -3 1 21 31 13 31 -7 0 -8 4
-16 9 -19 5 -3 8 2 7 10 0 9 7 18 17 20 14 2 15 -1 8 -10 -8 -10 -5 -12 11
-11 12 1 23 6 25 11 2 5 23 8 47 6 39 -3 44 -7 41 -24 -3 -12 -1 -17 3 -14 4
4 8 12 8 17 1 5 2 13 3 17 0 5 7 9 14 10 12 1 47 9 57 12 3 1 8 2 12 1 4 0 25
17 48 39 23 22 47 37 52 34 7 -4 8 -2 4 5 -4 6 -2 19 6 28 11 14 11 16 -2 9
-11 -6 -11 -4 1 6 9 7 15 21 13 31 -1 9 1 17 5 17 4 0 8 6 9 13 0 6 3 23 6 37
16 71 19 87 22 107 1 12 5 34 8 50 3 15 8 44 11 63 3 19 10 49 16 66 5 17 12
42 14 55 3 13 9 25 14 27 6 2 8 9 5 16 -3 7 6 24 20 39 14 15 22 27 19 27 -3
0 4 9 17 20 12 11 28 17 34 13 6 -4 4 2 -4 12 -14 17 -13 18 7 13 25 -7 40 6
22 18 -8 5 -9 3 -4 -6 5 -9 4 -11 -3 -6 -15 9 -15 11 5 27 14 12 16 12 9 -1
-4 -8 4 0 19 18 15 18 33 31 40 29 6 -3 17 -2 24 3 10 5 9 9 -4 13 -10 5 -14
3 -9 -5 4 -7 3 -8 -5 -4 -16 10 7 39 26 32 7 -3 13 1 13 9 0 14 28 35 42 32 3
-1 10 2 15 7 4 5 3 6 -4 2 -6 -3 -14 -2 -18 4 -6 9 8 14 28 11 5 -1 6 3 3 8
-4 5 6 22 20 38 15 15 24 21 19 13 -5 -9 -5 -12 1 -7 5 5 10 13 10 18 1 5 2
14 3 20 0 5 4 8 9 5 4 -2 12 7 19 20 7 16 8 22 1 17 -7 -3 -8 -1 -4 5 4 7 14
12 21 12 9 0 12 6 8 16 -4 10 0 22 9 28 15 11 25 39 42 116 3 14 7 36 10 49 3
12 11 30 18 39 11 13 11 14 -1 7 -11 -6 -12 -5 -5 6 5 8 9 17 9 21 0 3 4 10 9
15 5 5 6 3 2 -5 -6 -9 1 -12 28 -10 19 1 34 4 34 7 0 4 0 13 1 21 1 13 2 13
11 0 8 -13 10 -12 11 5 1 11 1 23 0 28 0 4 7 7 16 7 14 0 15 2 4 9 -9 6 -10
11 -2 15 6 4 9 12 6 17 -4 5 -2 9 4 9 5 0 13 10 16 23 12 39 35 86 48 93 7 5
6 0 -3 -12 -14 -19 -14 -19 8 0 23 20 30 32 12 21 -5 -3 -10 -1 -10 4 0 6 5
11 11 11 5 0 8 4 4 9 -3 5 0 13 6 17 7 4 9 3 5 -4 -3 -6 -2 -14 4 -17 6 -4 10
-3 9 2 -3 20 2 34 23 53 12 11 18 20 13 20 -5 0 11 18 36 40 24 22 39 40 32
40 -6 0 -14 -6 -16 -12 -4 -10 -6 -10 -6 0 -1 8 8 16 19 19 11 3 20 10 20 15
0 5 -6 6 -12 3 -7 -4 -4 1 6 9 11 9 16 16 10 16 -5 0 -3 4 5 9 8 5 16 17 17
27 2 9 9 21 16 25 7 5 9 9 5 9 -4 0 -2 10 5 23 7 12 13 25 14 30 1 4 3 9 4 12
1 3 4 10 5 15 1 6 4 12 5 15 1 3 4 10 5 15 1 6 3 11 5 13 2 3 8 28 18 82 12
65 7 220 -8 235 -13 13 -39 68 -35 74 3 3 3 4 0 2 -3 -2 -26 17 -50 41 -25 24
-45 41 -45 38 0 -4 -12 3 -26 14 -15 12 -33 21 -41 21 -8 0 -11 4 -8 10 3 6
-1 7 -9 4 -9 -3 -16 -1 -16 5 0 6 -7 11 -15 11 -8 0 -34 8 -58 19 -23 10 -60
23 -82 29 -22 6 -51 15 -65 19 -14 4 -29 8 -35 8 -5 1 -23 4 -40 8 -93 20
-248 25 -315 11 -41 -10 -317 -10 -375 -1 -22 3 -59 9 -82 12 -24 3 -62 8 -85
11 -38 5 -257 11 -261 8z m688 -166 c5 4 5 1 1 -6 -5 -8 -3 -13 5 -11 28 3 40
-1 33 -13 -5 -8 -2 -9 10 -5 10 4 15 3 11 -3 -3 -6 1 -10 9 -10 8 0 18 -5 22
-12 4 -7 3 -8 -4 -4 -7 4 -12 2 -12 -3 0 -6 5 -11 11 -11 14 0 39 -25 39 -39
0 -6 6 -11 13 -11 9 0 8 -3 -2 -9 -11 -7 -9 -10 8 -16 12 -3 19 -10 16 -15 -3
-5 -1 -11 4 -15 5 -3 8 -14 6 -25 -2 -12 0 -18 6 -15 8 5 10 1 9 -20 0 -3 6
-18 14 -34 9 -16 13 -31 10 -34 -3 -3 -2 -12 2 -19 5 -7 10 -22 11 -33 6 -50
13 -92 20 -115 3 -14 7 -28 7 -32 1 -3 4 -10 9 -14 4 -4 7 -17 7 -29 0 -12 3
-25 7 -29 4 -3 8 -16 10 -29 2 -12 8 -26 13 -31 6 -6 10 -20 10 -33 0 -13 4
-23 8 -23 5 0 9 -6 10 -12 2 -23 8 -43 20 -64 6 -12 9 -24 6 -27 -3 -3 -2 -12
2 -19 15 -22 32 -77 26 -83 -11 -10 -20 -5 -27 18 -4 12 -7 25 -6 30 1 4 -4 7
-10 7 -5 0 -8 4 -4 9 3 5 1 12 -5 16 -6 4 -8 11 -5 16 4 5 1 9 -5 9 -7 0 -10
7 -7 15 4 8 2 17 -4 20 -5 4 -7 11 -4 16 4 5 1 9 -6 9 -7 0 -9 3 -6 6 3 4 2
14 -3 24 -5 9 -11 28 -14 41 -3 13 -12 50 -20 81 -9 32 -18 72 -21 89 -3 17
-20 58 -37 92 -18 34 -31 66 -29 72 1 5 0 7 -4 3 -4 -4 -27 20 -52 52 -53 71
-94 107 -149 131 -22 10 -47 26 -56 36 -17 20 -17 65 0 71 7 2 12 8 12 13 0 6
-5 7 -12 3 -7 -4 -8 -3 -4 5 4 6 11 9 16 6 5 -3 11 -1 15 5 4 6 11 8 16 5 5
-4 9 -1 9 5 0 7 6 8 19 1 10 -6 22 -7 26 -3z m-1119 -25 c6 -13 14 -20 17 -16
9 8 9 -40 1 -61 -3 -9 -10 -13 -15 -10 -5 3 -9 0 -9 -6 0 -6 -19 -19 -43 -29
-24 -10 -61 -36 -83 -57 -21 -21 -43 -37 -49 -35 -5 1 -7 0 -3 -4 3 -4 -9 -27
-28 -52 -19 -24 -34 -49 -34 -54 0 -6 -5 -7 -12 -3 -6 4 -8 3 -5 -3 4 -6 -3
-22 -14 -37 -11 -14 -18 -26 -14 -26 3 0 0 -10 -6 -22 -11 -20 -16 -37 -33
-108 -14 -55 -28 -107 -33 -120 -3 -8 -8 -24 -10 -35 -2 -11 -6 -27 -10 -35
-3 -8 -8 -24 -10 -35 -2 -10 -8 -22 -15 -26 -6 -4 -8 -11 -5 -15 7 -12 -46
-117 -62 -122 -10 -3 -11 0 -2 17 7 11 9 21 6 21 -4 0 -3 6 2 13 4 6 8 14 9
17 0 3 3 12 7 20 12 32 32 96 32 105 0 6 3 12 6 15 4 3 9 16 10 30 2 14 7 27
11 30 4 3 9 16 11 28 2 12 6 25 10 28 4 4 7 17 7 29 0 11 5 26 12 33 7 7 8 12
4 12 -5 0 -4 6 1 13 13 16 29 79 36 143 2 17 7 36 11 43 4 7 5 15 2 18 -3 3
-1 12 5 20 6 7 8 13 4 13 -4 0 0 12 10 26 9 14 14 32 11 40 -3 8 -1 14 4 14 6
0 9 6 7 13 -1 6 3 11 9 10 7 -1 10 6 7 16 -3 10 1 22 8 26 8 6 10 4 4 -6 -5
-8 -4 -11 1 -6 9 9 10 13 13 42 0 8 8 15 16 15 8 0 14 6 13 13 -2 6 3 11 11 9
9 -2 11 3 7 14 -5 14 -4 15 9 4 9 -7 18 -10 22 -6 3 3 1 6 -5 6 -7 0 -12 5
-12 11 0 6 7 9 14 6 9 -4 13 -1 10 6 -6 17 34 33 81 33 31 -1 42 -6 51 -23z
m1511 -909 c-9 -9 -28 6 -21 18 4 6 10 6 17 -1 6 -6 8 -13 4 -17z m-1436 -44
c6 0 8 4 5 9 -5 8 3 8 34 1 3 0 -4 -7 -14 -15 -11 -8 -15 -15 -9 -15 7 0 18 7
26 15 19 18 31 7 15 -14 -10 -13 -8 -12 8 1 19 17 21 16 53 -19 18 -20 34 -41
35 -47 1 -6 6 -17 10 -25 7 -11 6 -12 -5 -6 -11 7 -11 5 1 -9 13 -17 15 -33 6
-76 -10 -52 -57 -102 -113 -121 -39 -13 -112 -7 -123 11 -4 6 -11 12 -16 12
-17 1 -54 30 -49 38 3 4 -2 11 -11 14 -8 3 -13 10 -9 15 3 5 0 13 -6 16 -16
10 -8 94 14 138 18 38 80 85 104 79 6 -1 15 3 19 10 6 9 9 9 12 0 2 -7 8 -12
13 -12z m891 5 c5 -6 8 -5 8 3 0 7 5 10 10 7 6 -4 8 -11 5 -16 -4 -5 -1 -9 4
-9 6 0 11 5 11 11 0 8 5 8 15 -1 8 -7 15 -9 15 -5 0 5 8 -2 19 -13 10 -12 24
-22 31 -22 10 0 10 -3 0 -15 -11 -13 -10 -14 5 -9 13 5 16 4 11 -4 -4 -7 -2
-12 4 -12 6 0 8 -4 5 -10 -3 -5 -2 -10 3 -10 9 0 11 -7 13 -62 1 -39 -16 -88
-31 -88 -6 0 -9 -4 -5 -9 5 -9 -48 -56 -63 -56 -4 0 -12 -3 -18 -7 -24 -16
-109 -1 -151 25 -24 15 -43 30 -43 33 0 3 6 2 13 -2 6 -4 2 3 -10 15 -28 27
-37 59 -28 108 3 21 6 44 7 51 1 7 7 11 14 8 8 -3 11 0 7 10 -8 21 42 65 57
50 8 -8 9 -6 4 9 -4 11 -4 17 1 13 4 -4 17 -1 28 7 23 16 48 16 59 0z m-408
-1039 c34 -1 67 -5 74 -9 7 -5 12 -3 12 4 0 8 3 9 13 0 8 -6 17 -8 20 -4 4 3
7 1 7 -6 0 -7 4 -10 9 -7 4 3 19 -4 32 -15 18 -15 20 -22 10 -28 -10 -6 -9
-10 4 -14 9 -4 13 -3 10 3 -3 6 -2 10 2 10 5 0 14 -9 21 -21 11 -17 11 -20 0
-14 -10 6 -11 5 0 -6 25 -27 10 -118 -28 -162 -37 -44 -57 -58 -108 -77 -60
-23 -177 -29 -210 -11 -11 6 -22 7 -26 4 -3 -3 -6 -1 -6 5 0 7 -3 12 -7 11
-16 -2 -53 14 -53 22 0 5 -6 9 -13 9 -13 0 -43 40 -39 53 1 4 -3 7 -10 7 -6 0
-9 3 -5 6 3 4 -1 13 -9 21 -11 11 -14 29 -10 62 2 25 5 50 5 54 1 5 7 5 14 1
7 -5 6 0 -3 11 -9 11 -10 16 -2 11 6 -4 12 -3 12 2 0 12 39 57 51 58 5 1 10 2
12 4 4 3 42 10 86 15 25 3 47 8 49 10 3 2 10 2 15 -2 6 -4 38 -7 71 -7z"/>
<path d="M2116 2738 c3 -5 10 -6 15 -3 13 9 11 12 -6 12 -8 0 -12 -4 -9 -9z"/>
<path d="M955 2739 c-3 -4 2 -6 10 -5 21 3 28 13 10 13 -9 0 -18 -4 -20 -8z"/>
<path d="M1220 1759 c0 -5 5 -7 10 -4 6 3 10 8 10 11 0 2 -4 4 -10 4 -5 0 -10
-5 -10 -11z"/>
<path d="M1970 1780 c0 -5 5 -10 11 -10 5 0 7 5 4 10 -3 6 -8 10 -11 10 -2 0
-4 -4 -4 -10z"/>
<path d="M1915 1740 c-3 -5 -1 -10 4 -10 6 0 11 5 11 10 0 6 -2 10 -4 10 -3 0
-8 -4 -11 -10z"/>
<path d="M1475 740 c-3 -5 -1 -10 4 -10 6 0 11 5 11 10 0 6 -2 10 -4 10 -3 0
-8 -4 -11 -10z"/>
<path d="M1381 714 c0 -11 3 -14 6 -6 3 7 2 16 -1 19 -3 4 -6 -2 -5 -13z"/>
<path d="M1406 718 c3 -5 10 -6 15 -3 13 9 11 12 -6 12 -8 0 -12 -4 -9 -9z"/>
<path d="M2710 1590 c8 -5 20 -10 25 -10 6 0 3 5 -5 10 -8 5 -19 10 -25 10 -5
0 -3 -5 5 -10z"/>
<path d="M790 1060 c0 -5 5 -10 11 -10 5 0 7 5 4 10 -3 6 -8 10 -11 10 -2 0
-4 -4 -4 -10z"/>
<path d="M2359 1053 c-13 -16 -12 -17 4 -4 16 13 21 21 13 21 -2 0 -10 -8 -17
-17z"/>
<path d="M893 945 c0 -8 4 -12 9 -9 5 3 6 10 3 15 -9 13 -12 11 -12 -6z"/>
<path d="M1558 253 c7 -3 16 -2 19 1 4 3 -2 6 -13 5 -11 0 -14 -3 -6 -6z"/>
<path d="M1905 240 c-3 -6 1 -7 9 -4 18 7 21 14 7 14 -6 0 -13 -4 -16 -10z"/>
<path d="M1395 230 c-3 -5 -1 -10 4 -10 6 0 11 5 11 10 0 6 -2 10 -4 10 -3 0
-8 -4 -11 -10z"/>
<path d="M1820 236 c0 -2 7 -7 16 -10 8 -3 12 -2 9 4 -6 10 -25 14 -25 6z"/>
<path d="M1318 223 c7 -3 16 -2 19 1 4 3 -2 6 -13 5 -11 0 -14 -3 -6 -6z"/>
</g>
</svg>
